<!DOCTYPE svg PUBLIC "-//W3C//DTD SVG 1.1//EN" "http://www.w3.org/Graphics/SVG/1.1/DTD/svg11.dtd">
<!-- Uploaded to: SVG Repo, www.svgrepo.com, Transformed by: SVG Repo Mixer Tools -->
<svg height="90px" width="90px" version="1.1" id="Layer_1" xmlns="http://www.w3.org/2000/svg" xmlns:xlink="http://www.w3.org/1999/xlink" viewBox="0 0 512 512" xml:space="preserve" fill="#000000">
<g id="SVGRepo_bgCarrier" stroke-width="0"/>
<g id="SVGRepo_tracerCarrier" stroke-linecap="round" stroke-linejoin="round"/>
<g id="SVGRepo_iconCarrier"> <path style="fill:#D5F4FA;" d="M325.189,79.592H62.27c-11.463,0-20.757,9.293-20.757,20.757v262.873 c0,11.463,9.293,20.757,20.757,20.757h262.919c11.463,0,20.757-9.294,20.757-20.757V100.349 C345.946,88.885,336.652,79.592,325.189,79.592z"/> <path style="fill:#C0FCFF;" d="M325.189,79.592H193.73v304.387h131.459c11.463,0,20.757-9.294,20.757-20.757V100.349 C345.946,88.885,336.652,79.592,325.189,79.592z"/> <path style="fill:#89D2E8;" d="M131.459,342.462H20.757C9.293,342.462,0,351.755,0,363.218c0,11.463,9.293,20.757,20.757,20.757 h110.703c11.463,0,20.757-9.293,20.757-20.757C152.216,351.755,142.923,342.462,131.459,342.462z"/> <path style="fill:#7AC0DE;" d="M325.189,342.462h-13.838h-83.027c-11.463,0-20.757,9.293-20.757,20.757 c0,11.463,9.294,20.757,20.757,20.757h83.027h13.838c11.463,0,20.757-9.293,20.757-20.757 C345.946,351.755,336.652,342.462,325.189,342.462z"/> <path style="fill:#D5F4FA;" d="M228.324,363.221c0,26.746-21.684,48.43-48.432,48.43s-48.432-21.684-48.432-48.43 c0-26.751,21.684-48.435,48.432-48.435S228.324,336.47,228.324,363.221z"/> <path style="fill:#C0FCFF;" d="M179.892,314.786v96.865c26.749,0,48.432-21.684,48.432-48.43 C228.324,336.47,206.64,314.786,179.892,314.786z"/> <path style="fill:#AA3827;" d="M179.892,432.408c-38.151,0-69.189-31.038-69.189-69.186c0-38.152,31.038-69.192,69.189-69.192 s69.189,31.04,69.189,69.192C249.081,401.371,218.043,432.408,179.892,432.408z M179.892,335.543 c-15.26,0-27.676,12.417-27.676,27.678c0,15.259,12.415,27.673,27.676,27.673s27.676-12.414,27.676-27.673 C207.568,347.959,195.152,335.543,179.892,335.543z"/> <path style="fill:#DA3981;" d="M507.847,240.08L424.82,129.4c-3.92-5.227-10.073-8.303-16.605-8.301l-83.027,0.007 c-11.463,0-20.755,9.295-20.755,20.757V363.22c0,11.463,9.293,20.757,20.757,20.757h166.054c11.463,0,20.757-9.293,20.757-20.757 V252.536C512,248.043,510.543,243.673,507.847,240.08z"/> <path style="fill:#A91E62;" d="M507.847,240.08L424.82,129.4c-3.92-5.225-10.071-8.301-16.604-8.301v262.877h83.027 c11.463,0,20.757-9.294,20.757-20.757V252.536C512,248.043,510.543,243.673,507.847,240.08z"/> <path style="fill:#D5F4FA;" d="M422.054,363.221c0,26.746-21.684,48.43-48.432,48.43c-26.749,0-48.432-21.684-48.432-48.43 c0-26.751,21.684-48.435,48.432-48.435S422.054,336.47,422.054,363.221z"/> <path style="fill:#C0FCFF;" d="M373.622,314.786v96.865c26.749,0,48.432-21.684,48.432-48.43 C422.054,336.47,400.37,314.786,373.622,314.786z"/> <path style="fill:#AA3827;" d="M373.622,432.408c-38.151,0-69.189-31.038-69.189-69.186c0-38.152,31.038-69.192,69.189-69.192 s69.189,31.04,69.189,69.192C442.811,401.371,411.773,432.408,373.622,432.408z M373.622,335.543 c-15.26,0-27.676,12.417-27.676,27.678c0,15.259,12.415,27.673,27.676,27.673c15.26,0,27.676-12.414,27.676-27.673 C401.297,347.959,388.882,335.543,373.622,335.543z"/> <g> <path style="fill:#672415;" d="M179.892,294.029v41.514c15.26,0,27.676,12.417,27.676,27.678c0,15.259-12.415,27.673-27.676,27.673 v41.514c38.151,0,69.189-31.038,69.189-69.186C249.081,325.069,218.043,294.029,179.892,294.029z"/> <path style="fill:#672415;" d="M373.622,294.029v41.514c15.26,0,27.676,12.417,27.676,27.678c0,15.259-12.415,27.673-27.676,27.673 v41.514c38.151,0,69.189-31.038,69.189-69.186C442.811,325.069,411.773,294.029,373.622,294.029z"/> </g> </g>
</svg>